<svg width="42" height="42" viewBox="0 0 42 42" fill="none" xmlns="http://www.w3.org/2000/svg">
<path d="M21 13.125C19.4425 13.125 17.9199 13.5869 16.6249 14.4522C15.3298 15.3175 14.3205 16.5474 13.7244 17.9864C13.1284 19.4253 12.9725 21.0087 13.2763 22.5363C13.5802 24.0639 14.3302 25.4671 15.4315 26.5685C16.5329 27.6698 17.9361 28.4198 19.4637 28.7237C20.9913 29.0275 22.5747 28.8716 24.0136 28.2756C25.4526 27.6795 26.6825 26.6702 27.5478 25.3751C28.4131 24.0801 28.875 22.5575 28.875 21C28.8728 18.9121 28.0424 16.9103 26.5661 15.4339C25.0897 13.9576 23.0879 13.1272 21 13.125ZM21 26.25C19.9616 26.25 18.9466 25.9421 18.0833 25.3652C17.2199 24.7883 16.547 23.9684 16.1496 23.0091C15.7523 22.0498 15.6483 20.9942 15.8509 19.9758C16.0534 18.9574 16.5535 18.0219 17.2877 17.2877C18.0219 16.5535 18.9574 16.0534 19.9758 15.8509C20.9942 15.6483 22.0498 15.7523 23.0091 16.1496C23.9684 16.547 24.7883 17.2199 25.3652 18.0833C25.9421 18.9466 26.25 19.9616 26.25 21C26.25 22.3924 25.6969 23.7277 24.7123 24.7123C23.7277 25.6969 22.3924 26.25 21 26.25ZM28.875 3.9375H13.125C10.6891 3.94011 8.35376 4.90891 6.63133 6.63133C4.90891 8.35376 3.94011 10.6891 3.9375 13.125V28.875C3.94011 31.3109 4.90891 33.6462 6.63133 35.3687C8.35376 37.0911 10.6891 38.0599 13.125 38.0625H28.875C31.3109 38.0599 33.6462 37.0911 35.3687 35.3687C37.0911 33.6462 38.0599 31.3109 38.0625 28.875V13.125C38.0599 10.6891 37.0911 8.35376 35.3687 6.63133C33.6462 4.90891 31.3109 3.94011 28.875 3.9375ZM35.4375 28.875C35.4375 30.6155 34.7461 32.2847 33.5154 33.5154C32.2847 34.7461 30.6155 35.4375 28.875 35.4375H13.125C11.3845 35.4375 9.71532 34.7461 8.48461 33.5154C7.2539 32.2847 6.5625 30.6155 6.5625 28.875V13.125C6.5625 11.3845 7.2539 9.71532 8.48461 8.48461C9.71532 7.2539 11.3845 6.5625 13.125 6.5625H28.875C30.6155 6.5625 32.2847 7.2539 33.5154 8.48461C34.7461 9.71532 35.4375 11.3845 35.4375 13.125V28.875ZM31.5 12.4688C31.5 12.8581 31.3845 13.2388 31.1682 13.5625C30.9519 13.8863 30.6444 14.1386 30.2847 14.2876C29.9249 14.4366 29.5291 14.4756 29.1472 14.3997C28.7653 14.3237 28.4145 14.1362 28.1391 13.8609C27.8638 13.5855 27.6763 13.2347 27.6003 12.8528C27.5244 12.4709 27.5634 12.0751 27.7124 11.7153C27.8614 11.3556 28.1137 11.0481 28.4375 10.8318C28.7612 10.6155 29.1419 10.5 29.5312 10.5C30.0534 10.5 30.5542 10.7074 30.9234 11.0766C31.2926 11.4458 31.5 11.9466 31.5 12.4688Z" fill="#26242D"/>
</svg>
